<mxfile host="app.diagrams.net" agent="Mozilla/5.0 (Windows NT 10.0; Win64; x64) AppleWebKit/537.36 (KHTML, like Gecko) Chrome/134.0.0.0 Safari/537.36" version="26.1.1">
  <diagram name="第 1 页" id="4WPFW71og6xvZLnfaNls">
    <mxGraphModel dx="1050" dy="522" grid="1" gridSize="10" guides="1" tooltips="1" connect="1" arrows="1" fold="1" page="1" pageScale="1" pageWidth="827" pageHeight="1169" math="1" shadow="0">
      <root>
        <mxCell id="0" />
        <mxCell id="1" parent="0" />
        <mxCell id="tywktK_uYDqv1M8Ew8Jb-1" value="" style="rounded=1;whiteSpace=wrap;html=1;dashed=1;" vertex="1" parent="1">
          <mxGeometry x="170" y="170" width="100" height="280" as="geometry" />
        </mxCell>
        <mxCell id="tywktK_uYDqv1M8Ew8Jb-2" value="" style="rounded=1;whiteSpace=wrap;html=1;dashed=1;" vertex="1" parent="1">
          <mxGeometry x="294" y="170" width="200" height="280" as="geometry" />
        </mxCell>
        <mxCell id="tywktK_uYDqv1M8Ew8Jb-3" value="" style="rounded=1;whiteSpace=wrap;html=1;dashed=1;" vertex="1" parent="1">
          <mxGeometry x="520" y="170" width="200" height="280" as="geometry" />
        </mxCell>
        <mxCell id="tywktK_uYDqv1M8Ew8Jb-4" value="&lt;font style=&quot;font-size: 18px;&quot; face=&quot;Times New Roman&quot;&gt;M-Net&lt;/font&gt;" style="text;strokeColor=none;align=center;fillColor=none;html=1;verticalAlign=middle;whiteSpace=wrap;rounded=0;" vertex="1" parent="1">
          <mxGeometry x="190" y="130" width="60" height="30" as="geometry" />
        </mxCell>
        <mxCell id="tywktK_uYDqv1M8Ew8Jb-5" value="&lt;font style=&quot;font-size: 18px;&quot; face=&quot;Times New Roman&quot;&gt;Decoupling&lt;/font&gt;" style="text;strokeColor=none;align=center;fillColor=none;html=1;verticalAlign=middle;whiteSpace=wrap;rounded=0;" vertex="1" parent="1">
          <mxGeometry x="364" y="130" width="60" height="30" as="geometry" />
        </mxCell>
        <mxCell id="tywktK_uYDqv1M8Ew8Jb-6" value="&lt;font style=&quot;font-size: 18px;&quot; face=&quot;Times New Roman&quot;&gt;Co-teaching&lt;/font&gt;" style="text;strokeColor=none;align=center;fillColor=none;html=1;verticalAlign=middle;whiteSpace=wrap;rounded=0;" vertex="1" parent="1">
          <mxGeometry x="575" y="130" width="90" height="30" as="geometry" />
        </mxCell>
        <mxCell id="tywktK_uYDqv1M8Ew8Jb-7" value="&lt;font style=&quot;font-size: 18px;&quot;&gt;批次1&lt;/font&gt;" style="text;strokeColor=none;align=center;fillColor=none;html=1;verticalAlign=middle;whiteSpace=wrap;rounded=0;" vertex="1" parent="1">
          <mxGeometry x="69" y="221" width="60" height="30" as="geometry" />
        </mxCell>
        <mxCell id="tywktK_uYDqv1M8Ew8Jb-8" value="&lt;font style=&quot;font-size: 18px;&quot;&gt;批次2&lt;/font&gt;" style="text;strokeColor=none;align=center;fillColor=none;html=1;verticalAlign=middle;whiteSpace=wrap;rounded=0;" vertex="1" parent="1">
          <mxGeometry x="69" y="296" width="60" height="30" as="geometry" />
        </mxCell>
        <mxCell id="tywktK_uYDqv1M8Ew8Jb-9" value="&lt;font style=&quot;font-size: 18px;&quot;&gt;批次3&lt;/font&gt;" style="text;strokeColor=none;align=center;fillColor=none;html=1;verticalAlign=middle;whiteSpace=wrap;rounded=0;" vertex="1" parent="1">
          <mxGeometry x="69" y="371" width="60" height="30" as="geometry" />
        </mxCell>
        <mxCell id="tywktK_uYDqv1M8Ew8Jb-10" value="&lt;font style=&quot;font-size: 18px;&quot;&gt;A&lt;/font&gt;" style="ellipse;whiteSpace=wrap;html=1;aspect=fixed;strokeWidth=3;" vertex="1" parent="1">
          <mxGeometry x="199.5" y="215.5" width="41" height="41" as="geometry" />
        </mxCell>
        <mxCell id="tywktK_uYDqv1M8Ew8Jb-11" value="&lt;font style=&quot;font-size: 18px;&quot;&gt;A&lt;/font&gt;" style="ellipse;whiteSpace=wrap;html=1;aspect=fixed;strokeWidth=3;" vertex="1" parent="1">
          <mxGeometry x="199.5" y="290.5" width="41" height="41" as="geometry" />
        </mxCell>
        <mxCell id="tywktK_uYDqv1M8Ew8Jb-12" value="&lt;font style=&quot;font-size: 18px;&quot;&gt;A&lt;/font&gt;" style="ellipse;whiteSpace=wrap;html=1;aspect=fixed;strokeWidth=3;" vertex="1" parent="1">
          <mxGeometry x="199.5" y="365.5" width="41" height="41" as="geometry" />
        </mxCell>
        <mxCell id="tywktK_uYDqv1M8Ew8Jb-13" value="&lt;font style=&quot;font-size: 18px;&quot;&gt;A&lt;/font&gt;" style="ellipse;whiteSpace=wrap;html=1;aspect=fixed;strokeWidth=3;" vertex="1" parent="1">
          <mxGeometry x="323" y="215.5" width="41" height="41" as="geometry" />
        </mxCell>
        <mxCell id="tywktK_uYDqv1M8Ew8Jb-14" value="&lt;font style=&quot;font-size: 18px;&quot;&gt;B&lt;/font&gt;" style="ellipse;whiteSpace=wrap;html=1;aspect=fixed;strokeWidth=3;" vertex="1" parent="1">
          <mxGeometry x="424" y="215.5" width="41" height="41" as="geometry" />
        </mxCell>
        <mxCell id="tywktK_uYDqv1M8Ew8Jb-15" value="&lt;font style=&quot;font-size: 18px;&quot;&gt;A&lt;/font&gt;" style="ellipse;whiteSpace=wrap;html=1;aspect=fixed;strokeWidth=3;" vertex="1" parent="1">
          <mxGeometry x="323" y="290.5" width="41" height="41" as="geometry" />
        </mxCell>
        <mxCell id="tywktK_uYDqv1M8Ew8Jb-16" value="&lt;font style=&quot;font-size: 18px;&quot;&gt;B&lt;/font&gt;" style="ellipse;whiteSpace=wrap;html=1;aspect=fixed;strokeWidth=3;" vertex="1" parent="1">
          <mxGeometry x="424" y="290.5" width="41" height="41" as="geometry" />
        </mxCell>
        <mxCell id="tywktK_uYDqv1M8Ew8Jb-17" value="&lt;font style=&quot;font-size: 18px;&quot;&gt;A&lt;/font&gt;" style="ellipse;whiteSpace=wrap;html=1;aspect=fixed;strokeWidth=3;" vertex="1" parent="1">
          <mxGeometry x="323" y="365.5" width="41" height="41" as="geometry" />
        </mxCell>
        <mxCell id="tywktK_uYDqv1M8Ew8Jb-18" value="&lt;font style=&quot;font-size: 18px;&quot;&gt;B&lt;/font&gt;" style="ellipse;whiteSpace=wrap;html=1;aspect=fixed;strokeWidth=3;" vertex="1" parent="1">
          <mxGeometry x="424" y="365.5" width="41" height="41" as="geometry" />
        </mxCell>
        <mxCell id="tywktK_uYDqv1M8Ew8Jb-20" value="&lt;font style=&quot;font-size: 18px;&quot;&gt;A&lt;/font&gt;" style="ellipse;whiteSpace=wrap;html=1;aspect=fixed;strokeWidth=3;" vertex="1" parent="1">
          <mxGeometry x="549" y="215.5" width="41" height="41" as="geometry" />
        </mxCell>
        <mxCell id="tywktK_uYDqv1M8Ew8Jb-21" value="&lt;font style=&quot;font-size: 18px;&quot;&gt;B&lt;/font&gt;" style="ellipse;whiteSpace=wrap;html=1;aspect=fixed;strokeWidth=3;" vertex="1" parent="1">
          <mxGeometry x="650" y="215.5" width="41" height="41" as="geometry" />
        </mxCell>
        <mxCell id="tywktK_uYDqv1M8Ew8Jb-22" value="&lt;font style=&quot;font-size: 18px;&quot;&gt;A&lt;/font&gt;" style="ellipse;whiteSpace=wrap;html=1;aspect=fixed;strokeWidth=3;" vertex="1" parent="1">
          <mxGeometry x="549" y="290.5" width="41" height="41" as="geometry" />
        </mxCell>
        <mxCell id="tywktK_uYDqv1M8Ew8Jb-23" value="&lt;font style=&quot;font-size: 18px;&quot;&gt;B&lt;/font&gt;" style="ellipse;whiteSpace=wrap;html=1;aspect=fixed;strokeWidth=3;" vertex="1" parent="1">
          <mxGeometry x="650" y="290.5" width="41" height="41" as="geometry" />
        </mxCell>
        <mxCell id="tywktK_uYDqv1M8Ew8Jb-24" value="&lt;font style=&quot;font-size: 18px;&quot;&gt;A&lt;/font&gt;" style="ellipse;whiteSpace=wrap;html=1;aspect=fixed;strokeWidth=3;" vertex="1" parent="1">
          <mxGeometry x="549" y="365.5" width="41" height="41" as="geometry" />
        </mxCell>
        <mxCell id="tywktK_uYDqv1M8Ew8Jb-25" value="&lt;font style=&quot;font-size: 18px;&quot;&gt;B&lt;/font&gt;" style="ellipse;whiteSpace=wrap;html=1;aspect=fixed;strokeWidth=3;" vertex="1" parent="1">
          <mxGeometry x="650" y="365.5" width="41" height="41" as="geometry" />
        </mxCell>
        <mxCell id="tywktK_uYDqv1M8Ew8Jb-28" value="" style="shape=flexArrow;endArrow=classic;html=1;rounded=0;width=8;endSize=3.53;endWidth=14;fillColor=#FF3333;strokeColor=light-dark(#ffffff, #ededed);" edge="1" parent="1">
          <mxGeometry width="50" height="50" relative="1" as="geometry">
            <mxPoint x="220" y="259" as="sourcePoint" />
            <mxPoint x="219.5" y="289.5" as="targetPoint" />
          </mxGeometry>
        </mxCell>
        <mxCell id="tywktK_uYDqv1M8Ew8Jb-30" value="" style="shape=flexArrow;endArrow=classic;html=1;rounded=0;width=8;endSize=3.53;endWidth=14;fillColor=#FF3333;strokeColor=light-dark(#ffffff, #ededed);" edge="1" parent="1">
          <mxGeometry width="50" height="50" relative="1" as="geometry">
            <mxPoint x="220" y="333.5" as="sourcePoint" />
            <mxPoint x="219.5" y="364" as="targetPoint" />
          </mxGeometry>
        </mxCell>
        <mxCell id="tywktK_uYDqv1M8Ew8Jb-31" value="" style="shape=flexArrow;endArrow=classic;html=1;rounded=0;width=8;endSize=3.53;endWidth=14;fillColor=#FF3333;strokeColor=light-dark(#ffffff, #ededed);" edge="1" parent="1">
          <mxGeometry width="50" height="50" relative="1" as="geometry">
            <mxPoint x="220" y="184" as="sourcePoint" />
            <mxPoint x="219.5" y="214.5" as="targetPoint" />
          </mxGeometry>
        </mxCell>
        <mxCell id="tywktK_uYDqv1M8Ew8Jb-32" value="" style="shape=flexArrow;endArrow=classic;html=1;rounded=0;width=8;endSize=3.53;endWidth=14;fillColor=#FF3333;strokeColor=light-dark(#ffffff, #ededed);" edge="1" parent="1">
          <mxGeometry width="50" height="50" relative="1" as="geometry">
            <mxPoint x="343.5" y="184" as="sourcePoint" />
            <mxPoint x="343" y="214.5" as="targetPoint" />
          </mxGeometry>
        </mxCell>
        <mxCell id="tywktK_uYDqv1M8Ew8Jb-33" value="" style="shape=flexArrow;endArrow=classic;html=1;rounded=0;width=8;endSize=3.53;endWidth=14;fillColor=#FF3333;strokeColor=light-dark(#ffffff, #ededed);" edge="1" parent="1">
          <mxGeometry width="50" height="50" relative="1" as="geometry">
            <mxPoint x="343.5" y="259" as="sourcePoint" />
            <mxPoint x="343" y="289.5" as="targetPoint" />
          </mxGeometry>
        </mxCell>
        <mxCell id="tywktK_uYDqv1M8Ew8Jb-34" value="" style="shape=flexArrow;endArrow=classic;html=1;rounded=0;width=8;endSize=3.53;endWidth=14;fillColor=#FF3333;strokeColor=light-dark(#ffffff, #ededed);" edge="1" parent="1">
          <mxGeometry width="50" height="50" relative="1" as="geometry">
            <mxPoint x="343.5" y="334" as="sourcePoint" />
            <mxPoint x="343" y="364.5" as="targetPoint" />
          </mxGeometry>
        </mxCell>
        <mxCell id="tywktK_uYDqv1M8Ew8Jb-35" value="" style="shape=flexArrow;endArrow=classic;html=1;rounded=0;width=8;endSize=3.53;endWidth=14;fillColor=#FF3333;strokeColor=light-dark(#ffffff, #ededed);" edge="1" parent="1">
          <mxGeometry width="50" height="50" relative="1" as="geometry">
            <mxPoint x="569.5" y="184" as="sourcePoint" />
            <mxPoint x="569" y="214.5" as="targetPoint" />
          </mxGeometry>
        </mxCell>
        <mxCell id="tywktK_uYDqv1M8Ew8Jb-36" value="" style="shape=flexArrow;endArrow=classic;html=1;rounded=0;width=8;endSize=3.53;endWidth=14;fillColor=#8FF2FF;strokeColor=light-dark(#ffffff, #ededed);" edge="1" parent="1">
          <mxGeometry width="50" height="50" relative="1" as="geometry">
            <mxPoint x="444.5" y="184" as="sourcePoint" />
            <mxPoint x="444" y="214.5" as="targetPoint" />
          </mxGeometry>
        </mxCell>
        <mxCell id="tywktK_uYDqv1M8Ew8Jb-37" value="" style="shape=flexArrow;endArrow=classic;html=1;rounded=0;width=8;endSize=3.53;endWidth=14;fillColor=#8FF2FF;strokeColor=light-dark(#ffffff, #ededed);" edge="1" parent="1">
          <mxGeometry width="50" height="50" relative="1" as="geometry">
            <mxPoint x="444.5" y="259" as="sourcePoint" />
            <mxPoint x="444" y="289.5" as="targetPoint" />
          </mxGeometry>
        </mxCell>
        <mxCell id="tywktK_uYDqv1M8Ew8Jb-38" value="" style="shape=flexArrow;endArrow=classic;html=1;rounded=0;width=8;endSize=3.53;endWidth=14;fillColor=#8FF2FF;strokeColor=light-dark(#ffffff, #ededed);" edge="1" parent="1">
          <mxGeometry width="50" height="50" relative="1" as="geometry">
            <mxPoint x="444.5" y="334" as="sourcePoint" />
            <mxPoint x="444" y="364.5" as="targetPoint" />
          </mxGeometry>
        </mxCell>
        <mxCell id="tywktK_uYDqv1M8Ew8Jb-39" value="" style="shape=flexArrow;endArrow=classic;html=1;rounded=0;width=8;endSize=3.53;endWidth=14;fillColor=#8FF2FF;strokeColor=light-dark(#ffffff, #ededed);" edge="1" parent="1">
          <mxGeometry width="50" height="50" relative="1" as="geometry">
            <mxPoint x="670.5" y="184" as="sourcePoint" />
            <mxPoint x="670" y="214.5" as="targetPoint" />
          </mxGeometry>
        </mxCell>
        <mxCell id="tywktK_uYDqv1M8Ew8Jb-42" value="&lt;font style=&quot;font-size: 16px;&quot;&gt;$$!=$$&lt;/font&gt;" style="text;strokeColor=none;align=center;fillColor=none;html=1;verticalAlign=middle;whiteSpace=wrap;rounded=0;" vertex="1" parent="1">
          <mxGeometry x="364" y="256.5" width="60" height="30" as="geometry" />
        </mxCell>
        <mxCell id="tywktK_uYDqv1M8Ew8Jb-43" value="&lt;font style=&quot;font-size: 16px;&quot;&gt;$$!=$$&lt;/font&gt;" style="text;strokeColor=none;align=center;fillColor=none;html=1;verticalAlign=middle;whiteSpace=wrap;rounded=0;" vertex="1" parent="1">
          <mxGeometry x="364" y="330" width="60" height="30" as="geometry" />
        </mxCell>
        <mxCell id="tywktK_uYDqv1M8Ew8Jb-53" value="" style="shape=flexArrow;endArrow=classic;html=1;rounded=0;width=8;endSize=3.53;endWidth=14;fillColor=#FF3333;strokeColor=light-dark(#ffffff, #ededed);entryX=0;entryY=0.5;entryDx=0;entryDy=0;edgeStyle=entityRelationEdgeStyle;elbow=vertical;opacity=80;" edge="1" parent="1">
          <mxGeometry width="50" height="50" relative="1" as="geometry">
            <mxPoint x="584" y="256" as="sourcePoint" />
            <mxPoint x="650" y="307" as="targetPoint" />
            <Array as="points">
              <mxPoint x="600" y="266" />
              <mxPoint x="600" y="256" />
              <mxPoint x="600" y="276" />
              <mxPoint x="610" y="296" />
            </Array>
          </mxGeometry>
        </mxCell>
        <mxCell id="tywktK_uYDqv1M8Ew8Jb-54" value="" style="shape=flexArrow;endArrow=classic;html=1;rounded=0;width=8;endSize=3.53;endWidth=14;fillColor=#8FF2FF;strokeColor=light-dark(#ffffff, #ededed);entryX=0;entryY=0.5;entryDx=0;entryDy=0;edgeStyle=entityRelationEdgeStyle;elbow=vertical;" edge="1" parent="1">
          <mxGeometry width="50" height="50" relative="1" as="geometry">
            <mxPoint x="583" y="332" as="sourcePoint" />
            <mxPoint x="649" y="383" as="targetPoint" />
            <Array as="points">
              <mxPoint x="599" y="342" />
              <mxPoint x="599" y="332" />
              <mxPoint x="599" y="352" />
              <mxPoint x="609" y="372" />
            </Array>
          </mxGeometry>
        </mxCell>
        <mxCell id="tywktK_uYDqv1M8Ew8Jb-61" value="" style="shape=flexArrow;endArrow=classic;html=1;rounded=0;width=8;endSize=3.53;endWidth=14;fillColor=#8FF2FF;strokeColor=light-dark(#ffffff, #ededed);entryX=0.97;entryY=0.404;entryDx=0;entryDy=0;edgeStyle=entityRelationEdgeStyle;elbow=vertical;exitX=0.247;exitY=0.998;exitDx=0;exitDy=0;exitPerimeter=0;entryPerimeter=0;opacity=80;" edge="1" parent="1" source="tywktK_uYDqv1M8Ew8Jb-21" target="tywktK_uYDqv1M8Ew8Jb-22">
          <mxGeometry width="50" height="50" relative="1" as="geometry">
            <mxPoint x="483" y="60" as="sourcePoint" />
            <mxPoint x="549" y="111" as="targetPoint" />
            <Array as="points">
              <mxPoint x="640" y="260" />
              <mxPoint x="640" y="250" />
              <mxPoint x="640" y="270" />
              <mxPoint x="640" y="260" />
              <mxPoint x="499" y="70" />
              <mxPoint x="499" y="60" />
              <mxPoint x="499" y="80" />
              <mxPoint x="509" y="100" />
            </Array>
          </mxGeometry>
        </mxCell>
        <mxCell id="tywktK_uYDqv1M8Ew8Jb-63" value="" style="shape=flexArrow;endArrow=classic;html=1;rounded=0;width=8;endSize=3.53;endWidth=14;fillColor=#FF3333;strokeColor=light-dark(#ffffff, #ededed);entryX=0.987;entryY=0.435;entryDx=0;entryDy=0;edgeStyle=entityRelationEdgeStyle;elbow=vertical;exitX=0.299;exitY=1.009;exitDx=0;exitDy=0;opacity=80;exitPerimeter=0;entryPerimeter=0;" edge="1" parent="1" source="tywktK_uYDqv1M8Ew8Jb-23" target="tywktK_uYDqv1M8Ew8Jb-24">
          <mxGeometry width="50" height="50" relative="1" as="geometry">
            <mxPoint x="670" y="267" as="sourcePoint" />
            <mxPoint x="599" y="317" as="targetPoint" />
            <Array as="points">
              <mxPoint x="650" y="270" />
              <mxPoint x="650" y="260" />
              <mxPoint x="650" y="280" />
              <mxPoint x="650" y="270" />
              <mxPoint x="509" y="80" />
              <mxPoint x="509" y="70" />
              <mxPoint x="509" y="90" />
              <mxPoint x="519" y="110" />
            </Array>
          </mxGeometry>
        </mxCell>
      </root>
    </mxGraphModel>
  </diagram>
</mxfile>
